<svg width="22" height="22" viewBox="0 0 22 22" fill="none" xmlns="http://www.w3.org/2000/svg">
<g clip-path="url(#clip0_3002_262)">
<path d="M4.58333 12.8333H0V1.83333H4.58333V12.8333ZM21.8854 8.42508C21.8854 7.83292 21.3767 7.21508 20.3381 7.13258C19.701 7.08217 19.5424 6.5615 20.3097 6.38825C20.9523 6.2425 21.3162 5.79058 21.3162 5.30567C21.3162 4.72908 20.8037 4.10575 19.6423 3.89125C18.9402 3.762 18.8705 3.0745 19.6139 3.01767C20.2446 2.96908 20.4939 2.75092 20.4939 2.44383C20.493 1.59042 18.9777 0 16.0462 0C12.2329 0 10.4335 1.89475 6.41667 2.53733V12.5088C8.59375 13.3054 10.5105 14.9325 11.6307 18.821C12.0688 20.3436 12.3466 22 13.8068 22C15.9839 22 16.1847 17.3021 15.3542 13.9508C16.5568 13.3201 18.7926 13.0927 19.9183 13.1395C21.5417 13.2055 22 12.3897 22 11.7737C22 10.8469 21.2364 10.5362 20.7588 10.3895C20.2006 10.2172 19.9439 9.64975 20.7304 9.54433C21.4968 9.44167 21.8854 8.943 21.8854 8.42508V8.42508Z" fill="white"/>
</g>
<defs>
<clipPath id="clip0_3002_262">
<rect width="22" height="22" fill="white"/>
</clipPath>
</defs>
</svg>
