<svg width="19" height="19" viewBox="0 0 19 19" fill="none" xmlns="http://www.w3.org/2000/svg">
<g clip-path="url(#clip0_1344_367)">
<path d="M19 9.44933C19 8.65767 18.2194 4.40404 17.8236 2.91808C17.2583 0.789292 15.8674 0 13.8581 0C12.0507 0 10.6289 0.488458 9.63379 0.91675C8.01087 1.61579 6.63258 2.11929 4.75 2.299V1.58333H0V11.0833H4.75V10.5054C6.69275 10.9685 8.59117 12.141 9.81667 16.3653C10.199 17.6795 10.5862 19 12.0595 19C14.7891 19 14.4384 14.6213 13.798 12.0223C14.6735 11.6533 15.9885 11.4744 16.9464 11.4333C18.0753 11.3858 19 10.754 19 9.44933ZM3.16667 9.5H1.58333V3.16667H3.16667V9.5ZM15.6394 8.46925L16.743 8.60146C17.594 8.70358 17.6178 9.80875 16.7833 9.85546C14.607 9.97738 12.7775 10.6574 11.9383 11.0873C12.2788 12.4711 12.6667 13.8288 12.6667 15.4684C12.6667 17.4515 12.0484 18.3706 11.3375 15.9228C9.75967 10.4928 7.334 9.30129 4.75 8.70833V3.95833C6.74579 3.90133 8.48667 3.13421 10.2592 2.37104C11.6296 1.78125 14.098 1.1875 15.3385 1.88496C16.3638 2.54679 16.2205 3.25771 15.5697 3.19992L14.9593 3.17458C14.3141 3.10017 14.231 4.02008 14.873 4.07788C14.873 4.07788 15.9188 4.12696 16.2545 4.16892C17.0272 4.26629 17.0683 5.44112 16.2228 5.39679C15.861 5.37779 15.318 5.36433 15.318 5.36433C14.687 5.33979 14.6253 6.21775 15.2063 6.29217C15.2063 6.29217 15.7716 6.29612 16.6005 6.37054C17.4293 6.44496 17.4539 7.64433 16.5973 7.60792C15.9101 7.57862 15.751 7.58654 15.751 7.58654C15.1573 7.5905 15.0583 8.40038 15.6394 8.46925Z" fill="white"/>
</g>
<defs>
<clipPath id="clip0_1344_367">
<rect width="19" height="19" fill="white"/>
</clipPath>
</defs>
</svg>
