<svg width="21" height="21" viewBox="0 0 21 21" fill="none" xmlns="http://www.w3.org/2000/svg">
<path d="M10.5 1.75C8.41142 1.75 6.40838 2.57968 4.93153 4.05653C3.45468 5.53338 2.625 7.53642 2.625 9.625C2.625 12.2762 3.96375 14.7175 6.125 16.1612V19.25H7.875V16.625H9.625V19.25H11.375V16.625H13.125V19.25H14.875V16.1525C17.0363 14.7087 18.375 12.25 18.375 9.625C18.375 7.53642 17.5453 5.53338 16.0685 4.05653C14.5916 2.57968 12.5886 1.75 10.5 1.75ZM7 9.625C7.46413 9.625 7.90925 9.80937 8.23744 10.1376C8.56563 10.4658 8.75 10.9109 8.75 11.375C8.75 11.8391 8.56563 12.2842 8.23744 12.6124C7.90925 12.9406 7.46413 13.125 7 13.125C6.53587 13.125 6.09075 12.9406 5.76256 12.6124C5.43437 12.2842 5.25 11.8391 5.25 11.375C5.25 10.9109 5.43437 10.4658 5.76256 10.1376C6.09075 9.80937 6.53587 9.625 7 9.625ZM14 9.625C14.4641 9.625 14.9092 9.80937 15.2374 10.1376C15.5656 10.4658 15.75 10.9109 15.75 11.375C15.75 11.8391 15.5656 12.2842 15.2374 12.6124C14.9092 12.9406 14.4641 13.125 14 13.125C13.5359 13.125 13.0908 12.9406 12.7626 12.6124C12.4344 12.2842 12.25 11.8391 12.25 11.375C12.25 10.9109 12.4344 10.4658 12.7626 10.1376C13.0908 9.80937 13.5359 9.625 14 9.625ZM10.5 12.25L11.8125 14.875H9.1875L10.5 12.25Z" fill="white"/>
</svg>
