<svg width="136" height="225" viewBox="0 0 136 225" fill="none" xmlns="http://www.w3.org/2000/svg">
<path fill-rule="evenodd" clip-rule="evenodd" d="M104.5 9.5C100.9 6.7 78.3333 2 67.5 0H57.5C54.5 0 30 9.5 26.5 12C23 14.5 5.59141 32.6344 4.5 37C3 43 0 64 0 68C0 72 1.5 84 3 87.5C4.35424 90.6599 2.4481 101.563 1.69691 105.86L1.69688 105.86C1.61604 106.323 1.54858 106.709 1.5 107C1.22347 108.659 3.241 112.001 5.09967 115.079C6.60171 117.567 8 119.883 8 121C8.73122 121 9.46242 123.473 10.4624 126.855C12.1975 132.723 14.7419 141.328 19.4999 144.5C19.4999 144.5 22.4999 150.5 25.4999 151.5C27.1043 152.035 32.9987 165.726 37.9064 177.125L37.9064 177.125C42.1754 187.04 45.6977 195.222 44.9999 191.5C43.4999 183.5 46.4999 156.5 51.4999 156.5C54.4288 156.5 58.7303 180.005 62.2938 199.478C64.8136 213.247 66.9643 225 67.9999 225C69.0066 225 71.5539 213.892 74.597 200.622L74.597 200.621C79.1106 180.939 84.7147 156.5 87.9999 156.5C90.9999 156.5 93.4999 181.5 92.4999 191.5C91.8802 197.696 97.596 186.231 102.51 176.374C105.526 170.324 108.239 164.88 109 164.5C109 164.5 113.5 154 115 151.5C115.571 150.548 116.347 149.936 117.149 149.302C118.454 148.272 119.828 147.187 120.5 144.5C122.5 136.5 126.5 122 127 121C127.035 120.93 127.13 120.755 127.271 120.493C128.741 117.774 135.28 105.672 133 104C132.5 98 131.4 85.6 131 84C130.762 83.0496 131.767 77.9216 132.833 72.4791L132.833 72.479C134.01 66.4685 135.262 60.0744 135 58.5C134.72 56.8221 132.407 49.0441 130.335 42.0771L130.335 42.0754C128.703 36.5866 127.22 31.6016 127 30.5C126.5 28 109 13 104.5 9.5ZM62.5 106.5C62.9 104.9 65.6667 103.5 67.5 103.5H67.5002C69.3334 103.5 70.5001 103.5 72.5 105.5C74.4687 107.469 74.7886 110.537 75.0413 112.963C75.2168 114.646 75.36 116.02 76 116.5C78 118 84 125 84.5 134C84.955 142.189 80.8562 142.099 77.1006 142.016C76.7288 142.008 76.3603 142 76 142C72.3386 142 70.9115 140.151 69.793 138.702C69.0723 137.768 68.4797 137 67.5 137C65.5796 137 65.4294 137.295 64.7831 138.565C64.588 138.948 64.3478 139.42 64 140C62.5 142.5 56 142 54 140C52.3906 138.391 52.3645 138.08 52.1838 135.933C52.1399 135.412 52.0869 134.782 52 134C51.2135 126.921 56.2152 121.08 58.6995 118.179C59.3739 117.391 59.8627 116.82 60 116.5C61.0788 113.983 61.6404 110.948 62.0567 108.698L62.0568 108.698C62.2193 107.82 62.3596 107.062 62.5 106.5ZM52 78.5C55.5 81.5 59.1999 90.4 53.9999 98C47.4999 107.5 39.4999 112.5 31.4999 112.5C30.6473 112.5 29.8174 112.517 29.0126 112.534C22.2664 112.672 17.2868 112.774 15.4999 102.5C13.4999 91 14.9999 82 18.9999 80C20.282 79.359 21.4099 78.5125 22.5484 77.6581C24.962 75.8468 27.423 74 31.4999 74C35.0147 74 36.6421 75.3726 37.9903 76.5097C38.9437 77.3137 39.7574 78 41 78C41.5883 78 42.3988 77.9399 43.3242 77.8713L43.3257 77.8712L43.3258 77.8712C46.1756 77.6599 50.1131 77.3679 52 78.5ZM87.5 78C85.5 79.5 81.5 83.5 81.5 87.5C81.5 92.5 88 108 90.5 108.5C91.0174 108.603 92.0916 109.007 93.5275 109.546C99.0301 111.612 109.845 115.672 115 112.5C121.5 108.5 125 97 124 93.5C123.908 93.1788 123.804 92.7945 123.686 92.3594L123.685 92.3577C122.515 88.0504 119.995 78.7703 115 76.5C109.5 74 105 75 103 76.5C102.303 77.0226 100.032 76.9952 97.3596 76.9629C93.8958 76.921 89.7579 76.871 87.5 78Z" fill="url(#paint0_radial_2801_465)"/>
<path fill-rule="evenodd" clip-rule="evenodd" d="M104.5 9.5C100.9 6.7 78.3333 2 67.5 0H57.5C54.5 0 30 9.5 26.5 12C23 14.5 5.59141 32.6344 4.5 37C3 43 0 64 0 68C0 72 1.5 84 3 87.5C4.35424 90.6599 2.4481 101.563 1.69691 105.86L1.69688 105.86C1.61604 106.323 1.54858 106.709 1.5 107C1.22347 108.659 3.241 112.001 5.09967 115.079C6.60171 117.567 8 119.883 8 121C8.73122 121 9.46242 123.473 10.4624 126.855C12.1975 132.723 14.7419 141.328 19.4999 144.5C19.4999 144.5 22.4999 150.5 25.4999 151.5C27.1043 152.035 32.9987 165.726 37.9064 177.125L37.9064 177.125C42.1754 187.04 45.6977 195.222 44.9999 191.5C43.4999 183.5 46.4999 156.5 51.4999 156.5C54.4288 156.5 58.7303 180.005 62.2938 199.478C64.8136 213.247 66.9643 225 67.9999 225C69.0066 225 71.5539 213.892 74.597 200.622L74.597 200.621C79.1106 180.939 84.7147 156.5 87.9999 156.5C90.9999 156.5 93.4999 181.5 92.4999 191.5C91.8802 197.696 97.596 186.231 102.51 176.374C105.526 170.324 108.239 164.88 109 164.5C109 164.5 113.5 154 115 151.5C115.571 150.548 116.347 149.936 117.149 149.302C118.454 148.272 119.828 147.187 120.5 144.5C122.5 136.5 126.5 122 127 121C127.035 120.93 127.13 120.755 127.271 120.493C128.741 117.774 135.28 105.672 133 104C132.5 98 131.4 85.6 131 84C130.762 83.0496 131.767 77.9216 132.833 72.4791L132.833 72.479C134.01 66.4685 135.262 60.0744 135 58.5C134.72 56.8221 132.407 49.0441 130.335 42.0771L130.335 42.0754C128.703 36.5866 127.22 31.6016 127 30.5C126.5 28 109 13 104.5 9.5ZM62.5 106.5C62.9 104.9 65.6667 103.5 67.5 103.5H67.5002C69.3334 103.5 70.5001 103.5 72.5 105.5C74.4687 107.469 74.7886 110.537 75.0413 112.963C75.2168 114.646 75.36 116.02 76 116.5C78 118 84 125 84.5 134C84.955 142.189 80.8562 142.099 77.1006 142.016C76.7288 142.008 76.3603 142 76 142C72.3386 142 70.9115 140.151 69.793 138.702C69.0723 137.768 68.4797 137 67.5 137C65.5796 137 65.4294 137.295 64.7831 138.565C64.588 138.948 64.3478 139.42 64 140C62.5 142.5 56 142 54 140C52.3906 138.391 52.3645 138.08 52.1838 135.933C52.1399 135.412 52.0869 134.782 52 134C51.2135 126.921 56.2152 121.08 58.6995 118.179C59.3739 117.391 59.8627 116.82 60 116.5C61.0788 113.983 61.6404 110.948 62.0567 108.698L62.0568 108.698C62.2193 107.82 62.3596 107.062 62.5 106.5ZM52 78.5C55.5 81.5 59.1999 90.4 53.9999 98C47.4999 107.5 39.4999 112.5 31.4999 112.5C30.6473 112.5 29.8174 112.517 29.0126 112.534C22.2664 112.672 17.2868 112.774 15.4999 102.5C13.4999 91 14.9999 82 18.9999 80C20.282 79.359 21.4099 78.5125 22.5484 77.6581C24.962 75.8468 27.423 74 31.4999 74C35.0147 74 36.6421 75.3726 37.9903 76.5097C38.9437 77.3137 39.7574 78 41 78C41.5883 78 42.3988 77.9399 43.3242 77.8713L43.3257 77.8712L43.3258 77.8712C46.1756 77.6599 50.1131 77.3679 52 78.5ZM87.5 78C85.5 79.5 81.5 83.5 81.5 87.5C81.5 92.5 88 108 90.5 108.5C91.0174 108.603 92.0916 109.007 93.5275 109.546C99.0301 111.612 109.845 115.672 115 112.5C121.5 108.5 125 97 124 93.5C123.908 93.1788 123.804 92.7945 123.686 92.3594L123.685 92.3577C122.515 88.0504 119.995 78.7703 115 76.5C109.5 74 105 75 103 76.5C102.303 77.0226 100.032 76.9952 97.3596 76.9629C93.8958 76.921 89.7579 76.871 87.5 78Z" fill="url(#paint1_radial_2801_465)"/>
<path fill-rule="evenodd" clip-rule="evenodd" d="M104.5 9.5C100.9 6.7 78.3333 2 67.5 0H57.5C54.5 0 30 9.5 26.5 12C23 14.5 5.59141 32.6344 4.5 37C3 43 0 64 0 68C0 72 1.5 84 3 87.5C4.35424 90.6599 2.4481 101.563 1.69691 105.86L1.69688 105.86C1.61604 106.323 1.54858 106.709 1.5 107C1.22347 108.659 3.241 112.001 5.09967 115.079C6.60171 117.567 8 119.883 8 121C8.73122 121 9.46242 123.473 10.4624 126.855C12.1975 132.723 14.7419 141.328 19.4999 144.5C19.4999 144.5 22.4999 150.5 25.4999 151.5C27.1043 152.035 32.9987 165.726 37.9064 177.125L37.9064 177.125C42.1754 187.04 45.6977 195.222 44.9999 191.5C43.4999 183.5 46.4999 156.5 51.4999 156.5C54.4288 156.5 58.7303 180.005 62.2938 199.478C64.8136 213.247 66.9643 225 67.9999 225C69.0066 225 71.5539 213.892 74.597 200.622L74.597 200.621C79.1106 180.939 84.7147 156.5 87.9999 156.5C90.9999 156.5 93.4999 181.5 92.4999 191.5C91.8802 197.696 97.596 186.231 102.51 176.374C105.526 170.324 108.239 164.88 109 164.5C109 164.5 113.5 154 115 151.5C115.571 150.548 116.347 149.936 117.149 149.302C118.454 148.272 119.828 147.187 120.5 144.5C122.5 136.5 126.5 122 127 121C127.035 120.93 127.13 120.755 127.271 120.493C128.741 117.774 135.28 105.672 133 104C132.5 98 131.4 85.6 131 84C130.762 83.0496 131.767 77.9216 132.833 72.4791L132.833 72.479C134.01 66.4685 135.262 60.0744 135 58.5C134.72 56.8221 132.407 49.0441 130.335 42.0771L130.335 42.0754C128.703 36.5866 127.22 31.6016 127 30.5C126.5 28 109 13 104.5 9.5ZM62.5 106.5C62.9 104.9 65.6667 103.5 67.5 103.5H67.5002C69.3334 103.5 70.5001 103.5 72.5 105.5C74.4687 107.469 74.7886 110.537 75.0413 112.963C75.2168 114.646 75.36 116.02 76 116.5C78 118 84 125 84.5 134C84.955 142.189 80.8562 142.099 77.1006 142.016C76.7288 142.008 76.3603 142 76 142C72.3386 142 70.9115 140.151 69.793 138.702C69.0723 137.768 68.4797 137 67.5 137C65.5796 137 65.4294 137.295 64.7831 138.565C64.588 138.948 64.3478 139.42 64 140C62.5 142.5 56 142 54 140C52.3906 138.391 52.3645 138.08 52.1838 135.933C52.1399 135.412 52.0869 134.782 52 134C51.2135 126.921 56.2152 121.08 58.6995 118.179C59.3739 117.391 59.8627 116.82 60 116.5C61.0788 113.983 61.6404 110.948 62.0567 108.698L62.0568 108.698C62.2193 107.82 62.3596 107.062 62.5 106.5ZM52 78.5C55.5 81.5 59.1999 90.4 53.9999 98C47.4999 107.5 39.4999 112.5 31.4999 112.5C30.6473 112.5 29.8174 112.517 29.0126 112.534C22.2664 112.672 17.2868 112.774 15.4999 102.5C13.4999 91 14.9999 82 18.9999 80C20.282 79.359 21.4099 78.5125 22.5484 77.6581C24.962 75.8468 27.423 74 31.4999 74C35.0147 74 36.6421 75.3726 37.9903 76.5097C38.9437 77.3137 39.7574 78 41 78C41.5883 78 42.3988 77.9399 43.3242 77.8713L43.3257 77.8712L43.3258 77.8712C46.1756 77.6599 50.1131 77.3679 52 78.5ZM87.5 78C85.5 79.5 81.5 83.5 81.5 87.5C81.5 92.5 88 108 90.5 108.5C91.0174 108.603 92.0916 109.007 93.5275 109.546C99.0301 111.612 109.845 115.672 115 112.5C121.5 108.5 125 97 124 93.5C123.908 93.1788 123.804 92.7945 123.686 92.3594L123.685 92.3577C122.515 88.0504 119.995 78.7703 115 76.5C109.5 74 105 75 103 76.5C102.303 77.0226 100.032 76.9952 97.3596 76.9629C93.8958 76.921 89.7579 76.871 87.5 78Z" fill="url(#paint2_radial_2801_465)"/>
<path fill-rule="evenodd" clip-rule="evenodd" d="M104.5 9.5C100.9 6.7 78.3333 2 67.5 0H57.5C54.5 0 30 9.5 26.5 12C23 14.5 5.59141 32.6344 4.5 37C3 43 0 64 0 68C0 72 1.5 84 3 87.5C4.35424 90.6599 2.4481 101.563 1.69691 105.86L1.69688 105.86C1.61604 106.323 1.54858 106.709 1.5 107C1.22347 108.659 3.241 112.001 5.09967 115.079C6.60171 117.567 8 119.883 8 121C8.73122 121 9.46242 123.473 10.4624 126.855C12.1975 132.723 14.7419 141.328 19.4999 144.5C19.4999 144.5 22.4999 150.5 25.4999 151.5C27.1043 152.035 32.9987 165.726 37.9064 177.125L37.9064 177.125C42.1754 187.04 45.6977 195.222 44.9999 191.5C43.4999 183.5 46.4999 156.5 51.4999 156.5C54.4288 156.5 58.7303 180.005 62.2938 199.478C64.8136 213.247 66.9643 225 67.9999 225C69.0066 225 71.5539 213.892 74.597 200.622L74.597 200.621C79.1106 180.939 84.7147 156.5 87.9999 156.5C90.9999 156.5 93.4999 181.5 92.4999 191.5C91.8802 197.696 97.596 186.231 102.51 176.374C105.526 170.324 108.239 164.88 109 164.5C109 164.5 113.5 154 115 151.5C115.571 150.548 116.347 149.936 117.149 149.302C118.454 148.272 119.828 147.187 120.5 144.5C122.5 136.5 126.5 122 127 121C127.035 120.93 127.13 120.755 127.271 120.493C128.741 117.774 135.28 105.672 133 104C132.5 98 131.4 85.6 131 84C130.762 83.0496 131.767 77.9216 132.833 72.4791L132.833 72.479C134.01 66.4685 135.262 60.0744 135 58.5C134.72 56.8221 132.407 49.0441 130.335 42.0771L130.335 42.0754C128.703 36.5866 127.22 31.6016 127 30.5C126.5 28 109 13 104.5 9.5ZM62.5 106.5C62.9 104.9 65.6667 103.5 67.5 103.5H67.5002C69.3334 103.5 70.5001 103.5 72.5 105.5C74.4687 107.469 74.7886 110.537 75.0413 112.963C75.2168 114.646 75.36 116.02 76 116.5C78 118 84 125 84.5 134C84.955 142.189 80.8562 142.099 77.1006 142.016C76.7288 142.008 76.3603 142 76 142C72.3386 142 70.9115 140.151 69.793 138.702C69.0723 137.768 68.4797 137 67.5 137C65.5796 137 65.4294 137.295 64.7831 138.565C64.588 138.948 64.3478 139.42 64 140C62.5 142.5 56 142 54 140C52.3906 138.391 52.3645 138.08 52.1838 135.933C52.1399 135.412 52.0869 134.782 52 134C51.2135 126.921 56.2152 121.08 58.6995 118.179C59.3739 117.391 59.8627 116.82 60 116.5C61.0788 113.983 61.6404 110.948 62.0567 108.698L62.0568 108.698C62.2193 107.82 62.3596 107.062 62.5 106.5ZM52 78.5C55.5 81.5 59.1999 90.4 53.9999 98C47.4999 107.5 39.4999 112.5 31.4999 112.5C30.6473 112.5 29.8174 112.517 29.0126 112.534C22.2664 112.672 17.2868 112.774 15.4999 102.5C13.4999 91 14.9999 82 18.9999 80C20.282 79.359 21.4099 78.5125 22.5484 77.6581C24.962 75.8468 27.423 74 31.4999 74C35.0147 74 36.6421 75.3726 37.9903 76.5097C38.9437 77.3137 39.7574 78 41 78C41.5883 78 42.3988 77.9399 43.3242 77.8713L43.3257 77.8712L43.3258 77.8712C46.1756 77.6599 50.1131 77.3679 52 78.5ZM87.5 78C85.5 79.5 81.5 83.5 81.5 87.5C81.5 92.5 88 108 90.5 108.5C91.0174 108.603 92.0916 109.007 93.5275 109.546C99.0301 111.612 109.845 115.672 115 112.5C121.5 108.5 125 97 124 93.5C123.908 93.1788 123.804 92.7945 123.686 92.3594L123.685 92.3577C122.515 88.0504 119.995 78.7703 115 76.5C109.5 74 105 75 103 76.5C102.303 77.0226 100.032 76.9952 97.3596 76.9629C93.8958 76.921 89.7579 76.871 87.5 78Z" fill="url(#paint3_radial_2801_465)"/>
<path fill-rule="evenodd" clip-rule="evenodd" d="M104.5 9.5C100.9 6.7 78.3333 2 67.5 0H57.5C54.5 0 30 9.5 26.5 12C23 14.5 5.59141 32.6344 4.5 37C3 43 0 64 0 68C0 72 1.5 84 3 87.5C4.35424 90.6599 2.4481 101.563 1.69691 105.86L1.69688 105.86C1.61604 106.323 1.54858 106.709 1.5 107C1.22347 108.659 3.241 112.001 5.09967 115.079C6.60171 117.567 8 119.883 8 121C8.73122 121 9.46242 123.473 10.4624 126.855C12.1975 132.723 14.7419 141.328 19.4999 144.5C19.4999 144.5 22.4999 150.5 25.4999 151.5C27.1043 152.035 32.9987 165.726 37.9064 177.125L37.9064 177.125C42.1754 187.04 45.6977 195.222 44.9999 191.5C43.4999 183.5 46.4999 156.5 51.4999 156.5C54.4288 156.5 58.7303 180.005 62.2938 199.478C64.8136 213.247 66.9643 225 67.9999 225C69.0066 225 71.5539 213.892 74.597 200.622L74.597 200.621C79.1106 180.939 84.7147 156.5 87.9999 156.5C90.9999 156.5 93.4999 181.5 92.4999 191.5C91.8802 197.696 97.596 186.231 102.51 176.374C105.526 170.324 108.239 164.88 109 164.5C109 164.5 113.5 154 115 151.5C115.571 150.548 116.347 149.936 117.149 149.302C118.454 148.272 119.828 147.187 120.5 144.5C122.5 136.5 126.5 122 127 121C127.035 120.93 127.13 120.755 127.271 120.493C128.741 117.774 135.28 105.672 133 104C132.5 98 131.4 85.6 131 84C130.762 83.0496 131.767 77.9216 132.833 72.4791L132.833 72.479C134.01 66.4685 135.262 60.0744 135 58.5C134.72 56.8221 132.407 49.0441 130.335 42.0771L130.335 42.0754C128.703 36.5866 127.22 31.6016 127 30.5C126.5 28 109 13 104.5 9.5ZM62.5 106.5C62.9 104.9 65.6667 103.5 67.5 103.5H67.5002C69.3334 103.5 70.5001 103.5 72.5 105.5C74.4687 107.469 74.7886 110.537 75.0413 112.963C75.2168 114.646 75.36 116.02 76 116.5C78 118 84 125 84.5 134C84.955 142.189 80.8562 142.099 77.1006 142.016C76.7288 142.008 76.3603 142 76 142C72.3386 142 70.9115 140.151 69.793 138.702C69.0723 137.768 68.4797 137 67.5 137C65.5796 137 65.4294 137.295 64.7831 138.565C64.588 138.948 64.3478 139.42 64 140C62.5 142.5 56 142 54 140C52.3906 138.391 52.3645 138.08 52.1838 135.933C52.1399 135.412 52.0869 134.782 52 134C51.2135 126.921 56.2152 121.08 58.6995 118.179C59.3739 117.391 59.8627 116.82 60 116.5C61.0788 113.983 61.6404 110.948 62.0567 108.698L62.0568 108.698C62.2193 107.82 62.3596 107.062 62.5 106.5ZM52 78.5C55.5 81.5 59.1999 90.4 53.9999 98C47.4999 107.5 39.4999 112.5 31.4999 112.5C30.6473 112.5 29.8174 112.517 29.0126 112.534C22.2664 112.672 17.2868 112.774 15.4999 102.5C13.4999 91 14.9999 82 18.9999 80C20.282 79.359 21.4099 78.5125 22.5484 77.6581C24.962 75.8468 27.423 74 31.4999 74C35.0147 74 36.6421 75.3726 37.9903 76.5097C38.9437 77.3137 39.7574 78 41 78C41.5883 78 42.3988 77.9399 43.3242 77.8713L43.3257 77.8712L43.3258 77.8712C46.1756 77.6599 50.1131 77.3679 52 78.5ZM87.5 78C85.5 79.5 81.5 83.5 81.5 87.5C81.5 92.5 88 108 90.5 108.5C91.0174 108.603 92.0916 109.007 93.5275 109.546C99.0301 111.612 109.845 115.672 115 112.5C121.5 108.5 125 97 124 93.5C123.908 93.1788 123.804 92.7945 123.686 92.3594L123.685 92.3577C122.515 88.0504 119.995 78.7703 115 76.5C109.5 74 105 75 103 76.5C102.303 77.0226 100.032 76.9952 97.3596 76.9629C93.8958 76.921 89.7579 76.871 87.5 78Z" fill="url(#paint4_radial_2801_465)"/>
<defs>
<radialGradient id="paint0_radial_2801_465" cx="0" cy="0" r="1" gradientUnits="userSpaceOnUse" gradientTransform="translate(48.7163 35.1994) rotate(72.3038) scale(199.952 133.451)">
<stop stop-color="white"/>
<stop offset="0.538278" stop-color="#BEBEBE"/>
</radialGradient>
<radialGradient id="paint1_radial_2801_465" cx="0" cy="0" r="1" gradientUnits="userSpaceOnUse" gradientTransform="translate(67.7389 143.558) rotate(90) scale(38.6503 23.1962)">
<stop stop-color="white" stop-opacity="0.6"/>
<stop offset="1" stop-color="white" stop-opacity="0"/>
</radialGradient>
<radialGradient id="paint2_radial_2801_465" cx="0" cy="0" r="1" gradientUnits="userSpaceOnUse" gradientTransform="translate(67.7389 222.239) rotate(-90) scale(40.0307 32.4832)">
<stop stop-color="white" stop-opacity="0.6"/>
<stop offset="1" stop-color="white" stop-opacity="0"/>
</radialGradient>
<radialGradient id="paint3_radial_2801_465" cx="0" cy="0" r="1" gradientUnits="userSpaceOnUse" gradientTransform="translate(37.1172 128.374) rotate(24.0499) scale(35.5649 42.3833)">
<stop stop-color="white" stop-opacity="0.3"/>
<stop offset="1" stop-color="white" stop-opacity="0"/>
</radialGradient>
<radialGradient id="paint4_radial_2801_465" cx="0" cy="0" r="1" gradientUnits="userSpaceOnUse" gradientTransform="translate(102.536 131.135) rotate(160.395) scale(34.9687 43.0171)">
<stop stop-color="white" stop-opacity="0.3"/>
<stop offset="1" stop-color="white" stop-opacity="0"/>
</radialGradient>
</defs>
</svg>
