<svg width="19" height="19" viewBox="0 0 19 19" fill="none" xmlns="http://www.w3.org/2000/svg">
<g clip-path="url(#clip0_1344_370)">
<path d="M3.95833 17.4167H0V7.91667H3.95833V17.4167ZM17.9035 10.7572C17.2251 10.6661 17.446 10.1761 17.9281 10.0273C18.3405 9.90058 19 9.63142 19 8.83183C19 8.29983 18.6042 7.59525 17.2021 7.65225C16.23 7.69183 14.2999 7.4955 13.2604 6.95163C13.9777 4.05729 13.8051 0 11.9241 0C10.6622 0 10.4231 1.43054 10.0439 2.74629C9.07725 6.10454 7.42188 7.50975 5.54167 8.19692V16.8087C9.01075 17.3636 10.5648 19 13.8581 19C16.3899 19 17.6993 17.6265 17.6993 16.8894C17.6993 16.6242 17.484 16.4358 16.9393 16.3938C16.2973 16.3448 16.3582 15.751 16.9638 15.6394C17.9677 15.4541 18.4094 14.9158 18.4094 14.4178C18.4094 13.999 18.0959 13.6088 17.5402 13.4829C16.8775 13.3333 17.0145 12.8836 17.5647 12.84C18.4617 12.7688 18.901 12.2352 18.901 11.7238C18.901 11.2765 18.5654 10.8458 17.9035 10.7572Z" fill="white"/>
</g>
<defs>
<clipPath id="clip0_1344_370">
<rect width="19" height="19" fill="white"/>
</clipPath>
</defs>
</svg>
