<svg width="184" height="63" viewBox="0 0 184 63" fill="none" xmlns="http://www.w3.org/2000/svg">
<path fill-rule="evenodd" clip-rule="evenodd" d="M57.2927 7C59.4261 7.39386 63.8701 8.31942 64.5791 8.87083C65.4653 9.56008 68.9115 12.514 69.01 13.0063C69.0534 13.2233 69.3454 14.2052 69.6668 15.2862C70.0748 16.6582 70.5303 18.1899 70.5854 18.5203C70.6371 18.8304 70.3905 20.0896 70.1586 21.2732L70.1586 21.2733C69.9487 22.3451 69.7509 23.3549 69.7977 23.542C69.8765 23.8571 70.0931 26.299 70.1916 27.4806C70.6406 27.8099 69.3527 30.1931 69.0633 30.7286L69.0633 30.7287C69.0355 30.7802 69.0169 30.8146 69.01 30.8284C68.9115 31.0253 68.1238 33.8808 67.7299 35.4562C67.5977 35.9854 67.3271 36.199 67.0701 36.4019L67.0701 36.4019C66.9121 36.5267 66.7593 36.6473 66.6468 36.8347C66.3514 37.3271 65.4653 39.3948 65.4653 39.3948C65.3155 39.4697 64.781 40.5418 64.1871 41.7332C63.2195 43.6742 62.0939 45.9322 62.2159 44.7119C62.4128 42.7426 61.9205 37.8194 61.3297 37.8194C60.6828 37.8194 59.5792 42.632 58.6903 46.5082C58.091 49.1214 57.5894 51.309 57.3911 51.309C57.1872 51.309 56.7637 48.9946 56.2675 46.283C55.5657 42.4483 54.7186 37.8194 54.1418 37.8194C53.1572 37.8194 52.5664 43.1365 52.8618 44.7119C52.9992 45.4448 52.3056 43.8337 51.4649 41.881C50.4984 39.6362 49.3376 36.9401 49.0217 36.8347C48.4309 36.6378 47.8401 35.4562 47.8401 35.4562C46.9031 34.8316 46.4021 33.137 46.0604 31.9814C45.8634 31.3154 45.7194 30.8284 45.5754 30.8284C45.5754 30.6084 45.3001 30.1523 45.0043 29.6624C44.6382 29.0562 44.2409 28.3981 44.2954 28.0714C44.305 28.014 44.3182 27.9381 44.3341 27.847L44.3342 27.8469C44.4821 27.0007 44.8575 24.8536 44.5908 24.2313C44.2954 23.542 44 21.1789 44 20.3912C44 19.6035 44.5908 15.4679 44.8862 14.2864C45.1011 13.4267 48.5294 9.85547 49.2186 9.36315C49.9079 8.87083 54.7326 7 55.3234 7H57.2927ZM56.308 27.9729C56.3868 27.6578 56.9316 27.3821 57.2927 27.3821H57.2927C57.6537 27.3821 57.8835 27.3821 58.2773 27.776C58.665 28.1637 58.728 28.768 58.7778 29.2456C58.8123 29.5772 58.8405 29.8476 58.9666 29.9422C59.3604 30.2376 60.542 31.6161 60.6405 33.3884C60.7301 35.0011 59.9229 34.9834 59.1833 34.9671L59.1831 34.9671C59.11 34.9655 59.0375 34.9639 58.9666 34.9639C58.2455 34.9639 57.9645 34.5997 57.7442 34.3143C57.6023 34.1304 57.4856 33.9792 57.2927 33.9792C56.9145 33.9792 56.8849 34.0373 56.7576 34.2874C56.7192 34.3629 56.6719 34.4559 56.6034 34.57C56.308 35.0623 55.028 34.9639 54.6341 34.57C54.3172 34.2531 54.3121 34.192 54.2765 33.7691C54.2678 33.6665 54.2574 33.5425 54.2403 33.3884C54.0854 31.9945 55.0704 30.8441 55.5596 30.2728C55.6924 30.1177 55.7887 30.0052 55.8157 29.9422C56.0282 29.4464 56.1388 28.8488 56.2207 28.4058L56.2207 28.4058C56.2527 28.2328 56.2804 28.0835 56.308 27.9729ZM54.2404 22.4589C54.9296 23.0497 55.6583 24.8023 54.6342 26.299C53.3542 28.1698 51.7788 29.1545 50.2033 29.1545C50.0354 29.1545 49.872 29.1578 49.7135 29.1611C48.385 29.1884 47.4043 29.2085 47.0525 27.1852C46.6586 24.9205 46.954 23.1481 47.7417 22.7543C47.9942 22.628 48.2163 22.4613 48.4405 22.2931C48.9158 21.9364 49.4004 21.5727 50.2033 21.5727C50.8955 21.5727 51.216 21.843 51.4815 22.0669C51.6692 22.2253 51.8294 22.3604 52.0742 22.3604C52.1901 22.3604 52.3498 22.3486 52.5321 22.3351L52.5322 22.335C53.0934 22.2934 53.8688 22.2359 54.2404 22.4589ZM61.2314 22.3604C60.8375 22.6558 60.0498 23.4435 60.0498 24.2312C60.0498 25.2159 61.3298 28.2683 61.8221 28.3667C61.924 28.3871 62.1355 28.4665 62.4182 28.5727L62.4183 28.5727L62.4183 28.5727C63.502 28.9795 65.6318 29.7792 66.6469 29.1545C67.9269 28.3667 68.6162 26.1021 68.4193 25.4128C68.4012 25.3495 68.3806 25.2738 68.3573 25.1881L68.3573 25.1879C68.1269 24.3396 67.6305 22.5121 66.6469 22.065C65.5638 21.5727 64.6776 21.7696 64.2838 22.065C64.1465 22.1679 63.6993 22.1625 63.173 22.1562H63.173C62.4909 22.1479 61.676 22.1381 61.2314 22.3604Z" fill="url(#paint0_radial_2802_295)"/>
<path fill-rule="evenodd" clip-rule="evenodd" d="M57.2927 7C59.4261 7.39386 63.8701 8.31942 64.5791 8.87083C65.4653 9.56008 68.9115 12.514 69.01 13.0063C69.0534 13.2233 69.3454 14.2052 69.6668 15.2862C70.0748 16.6582 70.5303 18.1899 70.5854 18.5203C70.6371 18.8304 70.3905 20.0896 70.1586 21.2732L70.1586 21.2733C69.9487 22.3451 69.7509 23.3549 69.7977 23.542C69.8765 23.8571 70.0931 26.299 70.1916 27.4806C70.6406 27.8099 69.3527 30.1931 69.0633 30.7286L69.0633 30.7287C69.0355 30.7802 69.0169 30.8146 69.01 30.8284C68.9115 31.0253 68.1238 33.8808 67.7299 35.4562C67.5977 35.9854 67.3271 36.199 67.0701 36.4019L67.0701 36.4019C66.9121 36.5267 66.7593 36.6473 66.6468 36.8347C66.3514 37.3271 65.4653 39.3948 65.4653 39.3948C65.3155 39.4697 64.781 40.5418 64.1871 41.7332C63.2195 43.6742 62.0939 45.9322 62.2159 44.7119C62.4128 42.7426 61.9205 37.8194 61.3297 37.8194C60.6828 37.8194 59.5792 42.632 58.6903 46.5082C58.091 49.1214 57.5894 51.309 57.3911 51.309C57.1872 51.309 56.7637 48.9946 56.2675 46.283C55.5657 42.4483 54.7186 37.8194 54.1418 37.8194C53.1572 37.8194 52.5664 43.1365 52.8618 44.7119C52.9992 45.4448 52.3056 43.8337 51.4649 41.881C50.4984 39.6362 49.3376 36.9401 49.0217 36.8347C48.4309 36.6378 47.8401 35.4562 47.8401 35.4562C46.9031 34.8316 46.4021 33.137 46.0604 31.9814C45.8634 31.3154 45.7194 30.8284 45.5754 30.8284C45.5754 30.6084 45.3001 30.1523 45.0043 29.6624C44.6382 29.0562 44.2409 28.3981 44.2954 28.0714C44.305 28.014 44.3182 27.9381 44.3341 27.847L44.3342 27.8469C44.4821 27.0007 44.8575 24.8536 44.5908 24.2313C44.2954 23.542 44 21.1789 44 20.3912C44 19.6035 44.5908 15.4679 44.8862 14.2864C45.1011 13.4267 48.5294 9.85547 49.2186 9.36315C49.9079 8.87083 54.7326 7 55.3234 7H57.2927ZM56.308 27.9729C56.3868 27.6578 56.9316 27.3821 57.2927 27.3821H57.2927C57.6537 27.3821 57.8835 27.3821 58.2773 27.776C58.665 28.1637 58.728 28.768 58.7778 29.2456C58.8123 29.5772 58.8405 29.8476 58.9666 29.9422C59.3604 30.2376 60.542 31.6161 60.6405 33.3884C60.7301 35.0011 59.9229 34.9834 59.1833 34.9671L59.1831 34.9671C59.11 34.9655 59.0375 34.9639 58.9666 34.9639C58.2455 34.9639 57.9645 34.5997 57.7442 34.3143C57.6023 34.1304 57.4856 33.9792 57.2927 33.9792C56.9145 33.9792 56.8849 34.0373 56.7576 34.2874C56.7192 34.3629 56.6719 34.4559 56.6034 34.57C56.308 35.0623 55.028 34.9639 54.6341 34.57C54.3172 34.2531 54.3121 34.192 54.2765 33.7691C54.2678 33.6665 54.2574 33.5425 54.2403 33.3884C54.0854 31.9945 55.0704 30.8441 55.5596 30.2728C55.6924 30.1177 55.7887 30.0052 55.8157 29.9422C56.0282 29.4464 56.1388 28.8488 56.2207 28.4058L56.2207 28.4058C56.2527 28.2328 56.2804 28.0835 56.308 27.9729ZM54.2404 22.4589C54.9296 23.0497 55.6583 24.8023 54.6342 26.299C53.3542 28.1698 51.7788 29.1545 50.2033 29.1545C50.0354 29.1545 49.872 29.1578 49.7135 29.1611C48.385 29.1884 47.4043 29.2085 47.0525 27.1852C46.6586 24.9205 46.954 23.1481 47.7417 22.7543C47.9942 22.628 48.2163 22.4613 48.4405 22.2931C48.9158 21.9364 49.4004 21.5727 50.2033 21.5727C50.8955 21.5727 51.216 21.843 51.4815 22.0669C51.6692 22.2253 51.8294 22.3604 52.0742 22.3604C52.1901 22.3604 52.3498 22.3486 52.5321 22.3351L52.5322 22.335C53.0934 22.2934 53.8688 22.2359 54.2404 22.4589ZM61.2314 22.3604C60.8375 22.6558 60.0498 23.4435 60.0498 24.2312C60.0498 25.2159 61.3298 28.2683 61.8221 28.3667C61.924 28.3871 62.1355 28.4665 62.4182 28.5727L62.4183 28.5727L62.4183 28.5727C63.502 28.9795 65.6318 29.7792 66.6469 29.1545C67.9269 28.3667 68.6162 26.1021 68.4193 25.4128C68.4012 25.3495 68.3806 25.2738 68.3573 25.1881L68.3573 25.1879C68.1269 24.3396 67.6305 22.5121 66.6469 22.065C65.5638 21.5727 64.6776 21.7696 64.2838 22.065C64.1465 22.1679 63.6993 22.1625 63.173 22.1562H63.173C62.4909 22.1479 61.676 22.1381 61.2314 22.3604Z" fill="url(#paint1_radial_2802_295)"/>
<path fill-rule="evenodd" clip-rule="evenodd" d="M57.2927 7C59.4261 7.39386 63.8701 8.31942 64.5791 8.87083C65.4653 9.56008 68.9115 12.514 69.01 13.0063C69.0534 13.2233 69.3454 14.2052 69.6668 15.2862C70.0748 16.6582 70.5303 18.1899 70.5854 18.5203C70.6371 18.8304 70.3905 20.0896 70.1586 21.2732L70.1586 21.2733C69.9487 22.3451 69.7509 23.3549 69.7977 23.542C69.8765 23.8571 70.0931 26.299 70.1916 27.4806C70.6406 27.8099 69.3527 30.1931 69.0633 30.7286L69.0633 30.7287C69.0355 30.7802 69.0169 30.8146 69.01 30.8284C68.9115 31.0253 68.1238 33.8808 67.7299 35.4562C67.5977 35.9854 67.3271 36.199 67.0701 36.4019L67.0701 36.4019C66.9121 36.5267 66.7593 36.6473 66.6468 36.8347C66.3514 37.3271 65.4653 39.3948 65.4653 39.3948C65.3155 39.4697 64.781 40.5418 64.1871 41.7332C63.2195 43.6742 62.0939 45.9322 62.2159 44.7119C62.4128 42.7426 61.9205 37.8194 61.3297 37.8194C60.6828 37.8194 59.5792 42.632 58.6903 46.5082C58.091 49.1214 57.5894 51.309 57.3911 51.309C57.1872 51.309 56.7637 48.9946 56.2675 46.283C55.5657 42.4483 54.7186 37.8194 54.1418 37.8194C53.1572 37.8194 52.5664 43.1365 52.8618 44.7119C52.9992 45.4448 52.3056 43.8337 51.4649 41.881C50.4984 39.6362 49.3376 36.9401 49.0217 36.8347C48.4309 36.6378 47.8401 35.4562 47.8401 35.4562C46.9031 34.8316 46.4021 33.137 46.0604 31.9814C45.8634 31.3154 45.7194 30.8284 45.5754 30.8284C45.5754 30.6084 45.3001 30.1523 45.0043 29.6624C44.6382 29.0562 44.2409 28.3981 44.2954 28.0714C44.305 28.014 44.3182 27.9381 44.3341 27.847L44.3342 27.8469C44.4821 27.0007 44.8575 24.8536 44.5908 24.2313C44.2954 23.542 44 21.1789 44 20.3912C44 19.6035 44.5908 15.4679 44.8862 14.2864C45.1011 13.4267 48.5294 9.85547 49.2186 9.36315C49.9079 8.87083 54.7326 7 55.3234 7H57.2927ZM56.308 27.9729C56.3868 27.6578 56.9316 27.3821 57.2927 27.3821H57.2927C57.6537 27.3821 57.8835 27.3821 58.2773 27.776C58.665 28.1637 58.728 28.768 58.7778 29.2456C58.8123 29.5772 58.8405 29.8476 58.9666 29.9422C59.3604 30.2376 60.542 31.6161 60.6405 33.3884C60.7301 35.0011 59.9229 34.9834 59.1833 34.9671L59.1831 34.9671C59.11 34.9655 59.0375 34.9639 58.9666 34.9639C58.2455 34.9639 57.9645 34.5997 57.7442 34.3143C57.6023 34.1304 57.4856 33.9792 57.2927 33.9792C56.9145 33.9792 56.8849 34.0373 56.7576 34.2874C56.7192 34.3629 56.6719 34.4559 56.6034 34.57C56.308 35.0623 55.028 34.9639 54.6341 34.57C54.3172 34.2531 54.3121 34.192 54.2765 33.7691C54.2678 33.6665 54.2574 33.5425 54.2403 33.3884C54.0854 31.9945 55.0704 30.8441 55.5596 30.2728C55.6924 30.1177 55.7887 30.0052 55.8157 29.9422C56.0282 29.4464 56.1388 28.8488 56.2207 28.4058L56.2207 28.4058C56.2527 28.2328 56.2804 28.0835 56.308 27.9729ZM54.2404 22.4589C54.9296 23.0497 55.6583 24.8023 54.6342 26.299C53.3542 28.1698 51.7788 29.1545 50.2033 29.1545C50.0354 29.1545 49.872 29.1578 49.7135 29.1611C48.385 29.1884 47.4043 29.2085 47.0525 27.1852C46.6586 24.9205 46.954 23.1481 47.7417 22.7543C47.9942 22.628 48.2163 22.4613 48.4405 22.2931C48.9158 21.9364 49.4004 21.5727 50.2033 21.5727C50.8955 21.5727 51.216 21.843 51.4815 22.0669C51.6692 22.2253 51.8294 22.3604 52.0742 22.3604C52.1901 22.3604 52.3498 22.3486 52.5321 22.3351L52.5322 22.335C53.0934 22.2934 53.8688 22.2359 54.2404 22.4589ZM61.2314 22.3604C60.8375 22.6558 60.0498 23.4435 60.0498 24.2312C60.0498 25.2159 61.3298 28.2683 61.8221 28.3667C61.924 28.3871 62.1355 28.4665 62.4182 28.5727L62.4183 28.5727L62.4183 28.5727C63.502 28.9795 65.6318 29.7792 66.6469 29.1545C67.9269 28.3667 68.6162 26.1021 68.4193 25.4128C68.4012 25.3495 68.3806 25.2738 68.3573 25.1881L68.3573 25.1879C68.1269 24.3396 67.6305 22.5121 66.6469 22.065C65.5638 21.5727 64.6776 21.7696 64.2838 22.065C64.1465 22.1679 63.6993 22.1625 63.173 22.1562H63.173C62.4909 22.1479 61.676 22.1381 61.2314 22.3604Z" fill="url(#paint2_radial_2802_295)"/>
<path fill-rule="evenodd" clip-rule="evenodd" d="M57.2927 7C59.4261 7.39386 63.8701 8.31942 64.5791 8.87083C65.4653 9.56008 68.9115 12.514 69.01 13.0063C69.0534 13.2233 69.3454 14.2052 69.6668 15.2862C70.0748 16.6582 70.5303 18.1899 70.5854 18.5203C70.6371 18.8304 70.3905 20.0896 70.1586 21.2732L70.1586 21.2733C69.9487 22.3451 69.7509 23.3549 69.7977 23.542C69.8765 23.8571 70.0931 26.299 70.1916 27.4806C70.6406 27.8099 69.3527 30.1931 69.0633 30.7286L69.0633 30.7287C69.0355 30.7802 69.0169 30.8146 69.01 30.8284C68.9115 31.0253 68.1238 33.8808 67.7299 35.4562C67.5977 35.9854 67.3271 36.199 67.0701 36.4019L67.0701 36.4019C66.9121 36.5267 66.7593 36.6473 66.6468 36.8347C66.3514 37.3271 65.4653 39.3948 65.4653 39.3948C65.3155 39.4697 64.781 40.5418 64.1871 41.7332C63.2195 43.6742 62.0939 45.9322 62.2159 44.7119C62.4128 42.7426 61.9205 37.8194 61.3297 37.8194C60.6828 37.8194 59.5792 42.632 58.6903 46.5082C58.091 49.1214 57.5894 51.309 57.3911 51.309C57.1872 51.309 56.7637 48.9946 56.2675 46.283C55.5657 42.4483 54.7186 37.8194 54.1418 37.8194C53.1572 37.8194 52.5664 43.1365 52.8618 44.7119C52.9992 45.4448 52.3056 43.8337 51.4649 41.881C50.4984 39.6362 49.3376 36.9401 49.0217 36.8347C48.4309 36.6378 47.8401 35.4562 47.8401 35.4562C46.9031 34.8316 46.4021 33.137 46.0604 31.9814C45.8634 31.3154 45.7194 30.8284 45.5754 30.8284C45.5754 30.6084 45.3001 30.1523 45.0043 29.6624C44.6382 29.0562 44.2409 28.3981 44.2954 28.0714C44.305 28.014 44.3182 27.9381 44.3341 27.847L44.3342 27.8469C44.4821 27.0007 44.8575 24.8536 44.5908 24.2313C44.2954 23.542 44 21.1789 44 20.3912C44 19.6035 44.5908 15.4679 44.8862 14.2864C45.1011 13.4267 48.5294 9.85547 49.2186 9.36315C49.9079 8.87083 54.7326 7 55.3234 7H57.2927ZM56.308 27.9729C56.3868 27.6578 56.9316 27.3821 57.2927 27.3821H57.2927C57.6537 27.3821 57.8835 27.3821 58.2773 27.776C58.665 28.1637 58.728 28.768 58.7778 29.2456C58.8123 29.5772 58.8405 29.8476 58.9666 29.9422C59.3604 30.2376 60.542 31.6161 60.6405 33.3884C60.7301 35.0011 59.9229 34.9834 59.1833 34.9671L59.1831 34.9671C59.11 34.9655 59.0375 34.9639 58.9666 34.9639C58.2455 34.9639 57.9645 34.5997 57.7442 34.3143C57.6023 34.1304 57.4856 33.9792 57.2927 33.9792C56.9145 33.9792 56.8849 34.0373 56.7576 34.2874C56.7192 34.3629 56.6719 34.4559 56.6034 34.57C56.308 35.0623 55.028 34.9639 54.6341 34.57C54.3172 34.2531 54.3121 34.192 54.2765 33.7691C54.2678 33.6665 54.2574 33.5425 54.2403 33.3884C54.0854 31.9945 55.0704 30.8441 55.5596 30.2728C55.6924 30.1177 55.7887 30.0052 55.8157 29.9422C56.0282 29.4464 56.1388 28.8488 56.2207 28.4058L56.2207 28.4058C56.2527 28.2328 56.2804 28.0835 56.308 27.9729ZM54.2404 22.4589C54.9296 23.0497 55.6583 24.8023 54.6342 26.299C53.3542 28.1698 51.7788 29.1545 50.2033 29.1545C50.0354 29.1545 49.872 29.1578 49.7135 29.1611C48.385 29.1884 47.4043 29.2085 47.0525 27.1852C46.6586 24.9205 46.954 23.1481 47.7417 22.7543C47.9942 22.628 48.2163 22.4613 48.4405 22.2931C48.9158 21.9364 49.4004 21.5727 50.2033 21.5727C50.8955 21.5727 51.216 21.843 51.4815 22.0669C51.6692 22.2253 51.8294 22.3604 52.0742 22.3604C52.1901 22.3604 52.3498 22.3486 52.5321 22.3351L52.5322 22.335C53.0934 22.2934 53.8688 22.2359 54.2404 22.4589ZM61.2314 22.3604C60.8375 22.6558 60.0498 23.4435 60.0498 24.2312C60.0498 25.2159 61.3298 28.2683 61.8221 28.3667C61.924 28.3871 62.1355 28.4665 62.4182 28.5727L62.4183 28.5727L62.4183 28.5727C63.502 28.9795 65.6318 29.7792 66.6469 29.1545C67.9269 28.3667 68.6162 26.1021 68.4193 25.4128C68.4012 25.3495 68.3806 25.2738 68.3573 25.1881L68.3573 25.1879C68.1269 24.3396 67.6305 22.5121 66.6469 22.065C65.5638 21.5727 64.6776 21.7696 64.2838 22.065C64.1465 22.1679 63.6993 22.1625 63.173 22.1562H63.173C62.4909 22.1479 61.676 22.1381 61.2314 22.3604Z" fill="url(#paint3_radial_2802_295)"/>
<path fill-rule="evenodd" clip-rule="evenodd" d="M57.2927 7C59.4261 7.39386 63.8701 8.31942 64.5791 8.87083C65.4653 9.56008 68.9115 12.514 69.01 13.0063C69.0534 13.2233 69.3454 14.2052 69.6668 15.2862C70.0748 16.6582 70.5303 18.1899 70.5854 18.5203C70.6371 18.8304 70.3905 20.0896 70.1586 21.2732L70.1586 21.2733C69.9487 22.3451 69.7509 23.3549 69.7977 23.542C69.8765 23.8571 70.0931 26.299 70.1916 27.4806C70.6406 27.8099 69.3527 30.1931 69.0633 30.7286L69.0633 30.7287C69.0355 30.7802 69.0169 30.8146 69.01 30.8284C68.9115 31.0253 68.1238 33.8808 67.7299 35.4562C67.5977 35.9854 67.3271 36.199 67.0701 36.4019L67.0701 36.4019C66.9121 36.5267 66.7593 36.6473 66.6468 36.8347C66.3514 37.3271 65.4653 39.3948 65.4653 39.3948C65.3155 39.4697 64.781 40.5418 64.1871 41.7332C63.2195 43.6742 62.0939 45.9322 62.2159 44.7119C62.4128 42.7426 61.9205 37.8194 61.3297 37.8194C60.6828 37.8194 59.5792 42.632 58.6903 46.5082C58.091 49.1214 57.5894 51.309 57.3911 51.309C57.1872 51.309 56.7637 48.9946 56.2675 46.283C55.5657 42.4483 54.7186 37.8194 54.1418 37.8194C53.1572 37.8194 52.5664 43.1365 52.8618 44.7119C52.9992 45.4448 52.3056 43.8337 51.4649 41.881C50.4984 39.6362 49.3376 36.9401 49.0217 36.8347C48.4309 36.6378 47.8401 35.4562 47.8401 35.4562C46.9031 34.8316 46.4021 33.137 46.0604 31.9814C45.8634 31.3154 45.7194 30.8284 45.5754 30.8284C45.5754 30.6084 45.3001 30.1523 45.0043 29.6624C44.6382 29.0562 44.2409 28.3981 44.2954 28.0714C44.305 28.014 44.3182 27.9381 44.3341 27.847L44.3342 27.8469C44.4821 27.0007 44.8575 24.8536 44.5908 24.2313C44.2954 23.542 44 21.1789 44 20.3912C44 19.6035 44.5908 15.4679 44.8862 14.2864C45.1011 13.4267 48.5294 9.85547 49.2186 9.36315C49.9079 8.87083 54.7326 7 55.3234 7H57.2927ZM56.308 27.9729C56.3868 27.6578 56.9316 27.3821 57.2927 27.3821H57.2927C57.6537 27.3821 57.8835 27.3821 58.2773 27.776C58.665 28.1637 58.728 28.768 58.7778 29.2456C58.8123 29.5772 58.8405 29.8476 58.9666 29.9422C59.3604 30.2376 60.542 31.6161 60.6405 33.3884C60.7301 35.0011 59.9229 34.9834 59.1833 34.9671L59.1831 34.9671C59.11 34.9655 59.0375 34.9639 58.9666 34.9639C58.2455 34.9639 57.9645 34.5997 57.7442 34.3143C57.6023 34.1304 57.4856 33.9792 57.2927 33.9792C56.9145 33.9792 56.8849 34.0373 56.7576 34.2874C56.7192 34.3629 56.6719 34.4559 56.6034 34.57C56.308 35.0623 55.028 34.9639 54.6341 34.57C54.3172 34.2531 54.3121 34.192 54.2765 33.7691C54.2678 33.6665 54.2574 33.5425 54.2403 33.3884C54.0854 31.9945 55.0704 30.8441 55.5596 30.2728C55.6924 30.1177 55.7887 30.0052 55.8157 29.9422C56.0282 29.4464 56.1388 28.8488 56.2207 28.4058L56.2207 28.4058C56.2527 28.2328 56.2804 28.0835 56.308 27.9729ZM54.2404 22.4589C54.9296 23.0497 55.6583 24.8023 54.6342 26.299C53.3542 28.1698 51.7788 29.1545 50.2033 29.1545C50.0354 29.1545 49.872 29.1578 49.7135 29.1611C48.385 29.1884 47.4043 29.2085 47.0525 27.1852C46.6586 24.9205 46.954 23.1481 47.7417 22.7543C47.9942 22.628 48.2163 22.4613 48.4405 22.2931C48.9158 21.9364 49.4004 21.5727 50.2033 21.5727C50.8955 21.5727 51.216 21.843 51.4815 22.0669C51.6692 22.2253 51.8294 22.3604 52.0742 22.3604C52.1901 22.3604 52.3498 22.3486 52.5321 22.3351L52.5322 22.335C53.0934 22.2934 53.8688 22.2359 54.2404 22.4589ZM61.2314 22.3604C60.8375 22.6558 60.0498 23.4435 60.0498 24.2312C60.0498 25.2159 61.3298 28.2683 61.8221 28.3667C61.924 28.3871 62.1355 28.4665 62.4182 28.5727L62.4183 28.5727L62.4183 28.5727C63.502 28.9795 65.6318 29.7792 66.6469 29.1545C67.9269 28.3667 68.6162 26.1021 68.4193 25.4128C68.4012 25.3495 68.3806 25.2738 68.3573 25.1881L68.3573 25.1879C68.1269 24.3396 67.6305 22.5121 66.6469 22.065C65.5638 21.5727 64.6776 21.7696 64.2838 22.065C64.1465 22.1679 63.6993 22.1625 63.173 22.1562H63.173C62.4909 22.1479 61.676 22.1381 61.2314 22.3604Z" fill="url(#paint4_radial_2802_295)"/>
<path d="M47.151 17.9295C47.151 17.2206 46.1007 16.3869 45.5755 16.0587C45.4442 16.0587 45.1423 16.1769 44.9847 16.6495C44.7878 17.2403 45.8709 24.3297 45.8709 22.9512C45.8709 21.5727 47.151 18.8157 47.151 17.9295Z" fill="url(#paint5_radial_2802_295)"/>
<path d="M66.5485 17.9295C66.5485 17.5357 67.927 16.5182 68.6162 16.0587C68.7803 16.3541 69.1283 17.0827 69.207 17.6341C69.3055 18.3234 68.3208 22.9512 68.0254 22.5574C67.7301 22.1635 67.3362 20.4896 67.3362 19.8988C67.3362 19.308 66.5485 18.4219 66.5485 17.9295Z" fill="url(#paint6_radial_2802_295)"/>
<path d="M29.5486 48C29.5486 48.11 29.7686 48.0367 30.2086 47.78C30.6486 47.4867 31.0519 46.9733 31.4186 46.24C31.7852 45.47 31.9686 44.3517 31.9686 42.885V30.4H11.2886V42.885C11.2886 44.3517 11.4719 45.47 11.8386 46.24C12.2052 46.9733 12.6086 47.4683 13.0486 47.725C13.4886 47.9817 13.7086 48.0733 13.7086 48H4.96357C4.96357 48.11 5.18357 48.0367 5.62357 47.78C6.06357 47.4867 6.44857 46.9733 6.77857 46.24C7.14524 45.47 7.32857 44.3517 7.32857 42.885V15.275C7.32857 13.8083 7.14524 12.7083 6.77857 11.975C6.44857 11.205 6.06357 10.6917 5.62357 10.435C5.18357 10.1783 4.96357 10.0867 4.96357 10.16H13.7086C13.7086 10.0867 13.4886 10.1783 13.0486 10.435C12.6086 10.6917 12.2052 11.205 11.8386 11.975C11.4719 12.7083 11.2886 13.8083 11.2886 15.275V27.98H31.9686V15.275C31.9686 13.8083 31.7852 12.7083 31.4186 11.975C31.0519 11.205 30.6486 10.6917 30.2086 10.435C29.7686 10.1783 29.5486 10.0867 29.5486 10.16H38.2936C38.2936 10.05 38.0736 10.1417 37.6336 10.435C37.1936 10.6917 36.7902 11.205 36.4236 11.975C36.0936 12.7083 35.9286 13.8083 35.9286 15.275V42.885C35.9286 44.3517 36.1119 45.47 36.4786 46.24C36.8452 46.9733 37.2486 47.4683 37.6886 47.725C38.1286 47.9817 38.3486 48.0733 38.3486 48H29.5486ZM104.21 34.855C104.21 37.7517 103.66 40.245 102.56 42.335C101.46 44.3883 99.9019 45.965 97.8852 47.065C95.9052 48.1283 93.5952 48.66 90.9552 48.66C86.5919 48.66 83.2185 47.45 80.8352 45.03C78.4519 42.61 77.2602 39.255 77.2602 34.965V15.275C77.2602 13.8083 77.0769 12.7083 76.7102 11.975C76.3802 11.205 75.9952 10.6917 75.5552 10.435C75.1519 10.1783 74.9502 10.0867 74.9502 10.16H83.5302C83.5302 10.0867 83.3102 10.1783 82.8702 10.435C82.4669 10.6917 82.0819 11.1867 81.7152 11.92C81.3852 12.6533 81.2202 13.7167 81.2202 15.11V34.965C81.2202 38.5217 82.0635 41.2717 83.7502 43.215C85.4735 45.1583 87.9852 46.13 91.2852 46.13C94.3285 46.13 96.7302 45.2133 98.4902 43.38C100.25 41.51 101.13 38.76 101.13 35.13V15.275C101.13 13.8083 100.947 12.7083 100.58 11.975C100.214 11.205 99.8102 10.6917 99.3702 10.435C98.9302 10.1783 98.7102 10.0867 98.7102 10.16H106.63C106.63 10.0867 106.41 10.1783 105.97 10.435C105.53 10.6917 105.127 11.205 104.76 11.975C104.394 12.7083 104.21 13.8083 104.21 15.275V34.855ZM149.47 10.16C148.957 10.27 148.444 10.6917 147.93 11.425C147.454 12.1217 147.215 13.3683 147.215 15.165V49.54L119.055 16.705V43.05C119.055 44.81 119.367 46.0567 119.99 46.79C120.614 47.4867 121.219 47.89 121.805 48H114.05C114.564 47.89 115.077 47.4867 115.59 46.79C116.14 46.0567 116.415 44.7917 116.415 42.995V15.495C116.415 14.2483 115.994 13.1117 115.15 12.085C114.307 11.0583 113.244 10.4167 111.96 10.16H118.78L144.575 40.245V15.165C144.575 12.3417 143.622 10.6733 141.715 10.16H149.47ZM161.505 12.36C159.891 12.36 158.553 12.6717 157.49 13.295C156.426 13.9183 155.656 14.7067 155.18 15.66L155.95 10.16H182.02L182.79 15.66C182.313 14.7067 181.543 13.9183 180.48 13.295C179.416 12.6717 178.078 12.36 176.465 12.36H170.965V42.885C170.965 44.3517 171.148 45.47 171.515 46.24C171.881 47.01 172.285 47.5233 172.725 47.78C173.165 48.0367 173.385 48.11 173.385 48H164.64C164.64 48.11 164.86 48.0367 165.3 47.78C165.74 47.5233 166.125 47.0283 166.455 46.295C166.821 45.525 167.005 44.3883 167.005 42.885V12.36H161.505Z" fill="#DFDFDF"/>
<defs>
<radialGradient id="paint0_radial_2802_295" cx="0" cy="0" r="1" gradientUnits="userSpaceOnUse" gradientTransform="translate(53.5937 13.9318) rotate(72.3038) scale(39.3764 26.2804)">
<stop stop-color="white"/>
<stop offset="0.538278" stop-color="#BEBEBE"/>
</radialGradient>
<radialGradient id="paint1_radial_2802_295" cx="0" cy="0" r="1" gradientUnits="userSpaceOnUse" gradientTransform="translate(57.3397 35.2708) rotate(90) scale(7.61136 4.56801)">
<stop stop-color="white" stop-opacity="0.6"/>
<stop offset="1" stop-color="white" stop-opacity="0"/>
</radialGradient>
<radialGradient id="paint2_radial_2802_295" cx="0" cy="0" r="1" gradientUnits="userSpaceOnUse" gradientTransform="translate(57.3397 50.7653) rotate(-90) scale(7.8832 6.39689)">
<stop stop-color="white" stop-opacity="0.6"/>
<stop offset="1" stop-color="white" stop-opacity="0"/>
</radialGradient>
<radialGradient id="paint3_radial_2802_295" cx="0" cy="0" r="1" gradientUnits="userSpaceOnUse" gradientTransform="translate(51.3094 32.2806) rotate(24.0499) scale(7.00376 8.34649)">
<stop stop-color="white" stop-opacity="0.3"/>
<stop offset="1" stop-color="white" stop-opacity="0"/>
</radialGradient>
<radialGradient id="paint4_radial_2802_295" cx="0" cy="0" r="1" gradientUnits="userSpaceOnUse" gradientTransform="translate(64.1924 32.8243) rotate(160.395) scale(6.88635 8.47132)">
<stop stop-color="white" stop-opacity="0.3"/>
<stop offset="1" stop-color="white" stop-opacity="0"/>
</radialGradient>
<radialGradient id="paint5_radial_2802_295" cx="0" cy="0" r="1" gradientUnits="userSpaceOnUse" gradientTransform="translate(57.0959 17.7326) rotate(83.2183) scale(18.3443 19.542)">
<stop stop-color="#656565"/>
<stop offset="1" stop-color="white" stop-opacity="0"/>
</radialGradient>
<radialGradient id="paint6_radial_2802_295" cx="0" cy="0" r="1" gradientUnits="userSpaceOnUse" gradientTransform="translate(57.0959 17.7326) rotate(83.2183) scale(18.3443 19.542)">
<stop stop-color="#656565"/>
<stop offset="1" stop-color="white" stop-opacity="0"/>
</radialGradient>
</defs>
</svg>
